<svg xmlns="http://www.w3.org/2000/svg" xmlns:xlink="http://www.w3.org/1999/xlink" width="50" zoomAndPan="magnify" viewBox="0 0 37.5 37.499999" height="50" preserveAspectRatio="xMidYMid meet" version="1.0"><defs><clipPath id="e5f3882444"><path d="M 8.710938 4.492188 L 27.957031 4.492188 L 27.957031 26 L 8.710938 26 Z M 8.710938 4.492188 " clip-rule="nonzero"/></clipPath><clipPath id="a29ba261f6"><path d="M 8.710938 27 L 15 27 L 15 32.617188 L 8.710938 32.617188 Z M 8.710938 27 " clip-rule="nonzero"/></clipPath><clipPath id="037329c3e9"><path d="M 10.007812 14.8125 L 13.277344 14.8125 L 13.277344 18.503906 L 10.007812 18.503906 Z M 10.007812 14.8125 " clip-rule="nonzero"/></clipPath><clipPath id="2889dde216"><path d="M 11.644531 14.8125 C 10.742188 14.8125 10.007812 15.640625 10.007812 16.660156 C 10.007812 17.675781 10.742188 18.503906 11.644531 18.503906 C 12.546875 18.503906 13.277344 17.675781 13.277344 16.660156 C 13.277344 15.640625 12.546875 14.8125 11.644531 14.8125 Z M 11.644531 14.8125 " clip-rule="nonzero"/></clipPath><clipPath id="2807c44bb9"><path d="M 0.0078125 0.8125 L 3.277344 0.8125 L 3.277344 4.503906 L 0.0078125 4.503906 Z M 0.0078125 0.8125 " clip-rule="nonzero"/></clipPath><clipPath id="9f4ea99412"><path d="M 1.644531 0.8125 C 0.742188 0.8125 0.0078125 1.640625 0.0078125 2.660156 C 0.0078125 3.675781 0.742188 4.503906 1.644531 4.503906 C 2.546875 4.503906 3.277344 3.675781 3.277344 2.660156 C 3.277344 1.640625 2.546875 0.8125 1.644531 0.8125 Z M 1.644531 0.8125 " clip-rule="nonzero"/></clipPath><clipPath id="1bf5f9bbbc"><rect x="0" width="4" y="0" height="5"/></clipPath></defs><g clip-path="url(#e5f3882444)"><path fill="#000000" d="M 19.226562 4.492188 L 11.40625 4.492188 C 9.929688 4.492188 8.730469 5.691406 8.730469 7.167969 L 8.730469 25.332031 C 9.515625 24.867188 10.425781 24.59375 11.402344 24.59375 C 12.382812 24.59375 13.296875 24.867188 14.082031 25.339844 L 14.082031 22.59375 L 19.226562 22.59375 C 24.21875 22.59375 28.277344 18.535156 28.277344 13.542969 C 28.277344 8.554688 24.21875 4.492188 19.226562 4.492188 Z M 19.226562 17.242188 L 14.082031 17.242188 L 14.082031 9.84375 L 19.226562 9.84375 C 21.265625 9.84375 22.925781 11.503906 22.925781 13.542969 C 22.925781 15.582031 21.265625 17.242188 19.226562 17.242188 Z M 19.226562 17.242188 " fill-opacity="1" fill-rule="nonzero"/></g><g clip-path="url(#a29ba261f6)"><path fill="#00bf63" d="M 11.402344 32.515625 C 9.929688 32.515625 8.730469 31.316406 8.730469 29.84375 C 8.730469 28.371094 9.929688 27.171875 11.402344 27.171875 C 12.875 27.171875 14.074219 28.371094 14.074219 29.84375 C 14.074219 31.316406 12.875 32.515625 11.402344 32.515625 Z M 11.402344 32.515625 " fill-opacity="1" fill-rule="nonzero"/></g><g clip-path="url(#037329c3e9)"><g clip-path="url(#2889dde216)"><g transform="matrix(1, 0, 0, 1, 10, 14)"><g clip-path="url(#1bf5f9bbbc)"><g clip-path="url(#2807c44bb9)"><g clip-path="url(#9f4ea99412)"><path fill="#000000" d="M 0.0078125 0.8125 L 3.277344 0.8125 L 3.277344 4.503906 L 0.0078125 4.503906 Z M 0.0078125 0.8125 " fill-opacity="1" fill-rule="nonzero"/></g></g></g></g></g></g></svg>